<?xml version="1.0" encoding="utf-8" standalone="no"?>
<!DOCTYPE svg PUBLIC "-//W3C//DTD SVG 1.1//EN"
  "http://www.w3.org/Graphics/SVG/1.1/DTD/svg11.dtd">
<!-- Created with matplotlib (http://matplotlib.org/) -->
<svg height="432pt" version="1.1" viewBox="0 0 576 432" width="576pt" xmlns="http://www.w3.org/2000/svg" xmlns:xlink="http://www.w3.org/1999/xlink">
 <defs>
  <style type="text/css">
*{stroke-linecap:butt;stroke-linejoin:round;}
  </style>
 </defs>
 <g id="figure_1">
  <g id="patch_1">
   <path d="
M0 432
L576 432
L576 0
L0 0
z
" style="fill:#ffffff;"/>
  </g>
  <g id="axes_1">
   <g id="patch_2">
    <path d="
M72 388.8
L518.4 388.8
L518.4 43.2
L72 43.2
z
" style="fill:#ffffff;"/>
   </g>
   <g id="PathCollection_1">
    <defs>
     <path d="
M0 2.23607
C0.593012 2.23607 1.16182 2.00046 1.58114 1.58114
C2.00046 1.16182 2.23607 0.593012 2.23607 0
C2.23607 -0.593012 2.00046 -1.16182 1.58114 -1.58114
C1.16182 -2.00046 0.593012 -2.23607 0 -2.23607
C-0.593012 -2.23607 -1.16182 -2.00046 -1.58114 -1.58114
C-2.00046 -1.16182 -2.23607 -0.593012 -2.23607 0
C-2.23607 0.593012 -2.00046 1.16182 -1.58114 1.58114
C-1.16182 2.00046 -0.593012 2.23607 0 2.23607
z
" id="m388a7c096d" style="stroke:#ff0000;"/>
    </defs>
    <g clip-path="url(#p7ff5b81e1d)">
     <use style="fill:#ff0000;stroke:#ff0000;" x="184.237714286" xlink:href="#m388a7c096d" y="306.371627062"/>
    </g>
   </g>
   <g id="PathCollection_2">
    <defs>
     <path d="
M0 2.23607
C0.593012 2.23607 1.16182 2.00046 1.58114 1.58114
C2.00046 1.16182 2.23607 0.593012 2.23607 0
C2.23607 -0.593012 2.00046 -1.16182 1.58114 -1.58114
C1.16182 -2.00046 0.593012 -2.23607 0 -2.23607
C-0.593012 -2.23607 -1.16182 -2.00046 -1.58114 -1.58114
C-2.00046 -1.16182 -2.23607 -0.593012 -2.23607 0
C-2.23607 0.593012 -2.00046 1.16182 -1.58114 1.58114
C-1.16182 2.00046 -0.593012 2.23607 0 2.23607
z
" id="m24f536de90" style="stroke:#bfbf00;"/>
    </defs>
    <g clip-path="url(#p7ff5b81e1d)">
     <use style="fill:#bfbf00;stroke:#bfbf00;" x="179.773714286" xlink:href="#m24f536de90" y="313.69757101"/>
    </g>
   </g>
   <g id="PathCollection_3">
    <defs>
     <path d="
M-2.23607 2.23607
L2.23607 -2.23607
M-2.23607 -2.23607
L2.23607 2.23607" id="mc0ba416f0c" style="stroke:#bf00bf;"/>
    </defs>
    <g clip-path="url(#p7ff5b81e1d)">
     <use style="fill:#bf00bf;stroke:#bf00bf;" x="190.614857143" xlink:href="#mc0ba416f0c" y="310.109822675"/>
    </g>
   </g>
   <g id="PathCollection_4">
    <g clip-path="url(#p7ff5b81e1d)">
     <use style="fill:#ff0000;stroke:#ff0000;" x="311.142857143" xlink:href="#m388a7c096d" y="295.496089811"/>
    </g>
   </g>
   <g id="PathCollection_5">
    <g clip-path="url(#p7ff5b81e1d)">
     <use style="fill:#bfbf00;stroke:#bfbf00;" x="296.475428571" xlink:href="#m24f536de90" y="313.640307528"/>
    </g>
   </g>
   <g id="PathCollection_6">
    <g clip-path="url(#p7ff5b81e1d)">
     <use style="fill:#ff0000;stroke:#ff0000;" x="324.534857143" xlink:href="#m388a7c096d" y="289.905120715"/>
    </g>
   </g>
   <g id="PathCollection_7">
    <g clip-path="url(#p7ff5b81e1d)">
     <use style="fill:#bfbf00;stroke:#bfbf00;" x="321.346285714" xlink:href="#m24f536de90" y="302.999780406"/>
    </g>
   </g>
   <g id="PathCollection_8">
    <g clip-path="url(#p7ff5b81e1d)">
     <use style="fill:#ff0000;stroke:#ff0000;" x="396.596571429" xlink:href="#m388a7c096d" y="283.171932251"/>
    </g>
   </g>
   <g id="PathCollection_9">
    <g clip-path="url(#p7ff5b81e1d)">
     <use style="fill:#bfbf00;stroke:#bfbf00;" x="380.653714286" xlink:href="#m24f536de90" y="300.453009139"/>
    </g>
   </g>
   <g id="PathCollection_10">
    <g clip-path="url(#p7ff5b81e1d)">
     <use style="fill:#ff0000;stroke:#ff0000;" x="403.611428571" xlink:href="#m388a7c096d" y="266.192245012"/>
    </g>
   </g>
   <g id="PathCollection_11">
    <g clip-path="url(#p7ff5b81e1d)">
     <use style="fill:#bfbf00;stroke:#bfbf00;" x="400.422857143" xlink:href="#m24f536de90" y="287.559474107"/>
    </g>
   </g>
   <g id="PathCollection_12">
    <g clip-path="url(#p7ff5b81e1d)">
     <use style="fill:#ff0000;stroke:#ff0000;" x="409.988571429" xlink:href="#m388a7c096d" y="254.544526383"/>
    </g>
   </g>
   <g id="PathCollection_13">
    <g clip-path="url(#p7ff5b81e1d)">
     <use style="fill:#bfbf00;stroke:#bfbf00;" x="406.8" xlink:href="#m24f536de90" y="274.557105676"/>
    </g>
   </g>
   <g id="PathCollection_14">
    <g clip-path="url(#p7ff5b81e1d)">
     <use style="fill:#ff0000;stroke:#ff0000;" x="415.090285714" xlink:href="#m388a7c096d" y="248.283083588"/>
    </g>
   </g>
   <g id="PathCollection_15">
    <g clip-path="url(#p7ff5b81e1d)">
     <use style="fill:#bfbf00;stroke:#bfbf00;" x="412.539428571" xlink:href="#m24f536de90" y="261.612668823"/>
    </g>
   </g>
   <g id="PathCollection_16">
    <g clip-path="url(#p7ff5b81e1d)">
     <use style="fill:#bf00bf;stroke:#bf00bf;" x="416.365714286" xlink:href="#mc0ba416f0c" y="256.100252841"/>
    </g>
   </g>
   <g id="PathCollection_17">
    <g clip-path="url(#p7ff5b81e1d)">
     <use style="fill:#ff0000;stroke:#ff0000;" x="431.033142857" xlink:href="#m388a7c096d" y="243.208966938"/>
    </g>
   </g>
   <g id="PathCollection_18">
    <g clip-path="url(#p7ff5b81e1d)">
     <use style="fill:#bfbf00;stroke:#bfbf00;" x="427.844571429" xlink:href="#m24f536de90" y="264.478024212"/>
    </g>
   </g>
   <g id="PathCollection_19">
    <g clip-path="url(#p7ff5b81e1d)">
     <use style="fill:#bf00bf;stroke:#bf00bf;" x="437.410285714" xlink:href="#mc0ba416f0c" y="254.121553086"/>
    </g>
   </g>
   <g id="PathCollection_20">
    <g clip-path="url(#p7ff5b81e1d)">
     <use style="fill:#ff0000;stroke:#ff0000;" x="453.990857143" xlink:href="#m388a7c096d" y="221.94869366"/>
    </g>
   </g>
   <g id="PathCollection_21">
    <g clip-path="url(#p7ff5b81e1d)">
     <use style="fill:#bfbf00;stroke:#bfbf00;" x="450.164571429" xlink:href="#m24f536de90" y="257.915822888"/>
    </g>
   </g>
   <g id="PathCollection_22">
    <g clip-path="url(#p7ff5b81e1d)">
     <use style="fill:#bf00bf;stroke:#bf00bf;" x="457.179428571" xlink:href="#mc0ba416f0c" y="240.720644163"/>
    </g>
   </g>
   <g id="PathCollection_23">
    <g clip-path="url(#p7ff5b81e1d)">
     <use style="fill:#ff0000;stroke:#ff0000;" x="473.76" xlink:href="#m388a7c096d" y="215.362156017"/>
    </g>
   </g>
   <g id="PathCollection_24">
    <g clip-path="url(#p7ff5b81e1d)">
     <use style="fill:#bfbf00;stroke:#bfbf00;" x="471.209142857" xlink:href="#m24f536de90" y="228.376009032"/>
    </g>
   </g>
   <g id="PathCollection_25">
    <g clip-path="url(#p7ff5b81e1d)">
     <use style="fill:#bf00bf;stroke:#bf00bf;" x="475.035428571" xlink:href="#mc0ba416f0c" y="225.568257752"/>
    </g>
   </g>
   <g id="PathCollection_26">
    <g clip-path="url(#p7ff5b81e1d)">
     <use style="fill:#ff0000;stroke:#ff0000;" x="498.630857143" xlink:href="#m388a7c096d" y="185.17324648"/>
    </g>
   </g>
   <g id="PathCollection_27">
    <g clip-path="url(#p7ff5b81e1d)">
     <use style="fill:#bfbf00;stroke:#bfbf00;" x="492.891428571" xlink:href="#m24f536de90" y="231.086241618"/>
    </g>
   </g>
   <g id="PathCollection_28">
    <g clip-path="url(#p7ff5b81e1d)">
     <use style="fill:#bf00bf;stroke:#bf00bf;" x="501.181714286" xlink:href="#mc0ba416f0c" y="208.869383897"/>
    </g>
   </g>
   <g id="PathCollection_29">
    <g clip-path="url(#p7ff5b81e1d)">
     <use style="fill:#ff0000;stroke:#ff0000;" x="526.690285714" xlink:href="#m388a7c096d" y="176.301519016"/>
    </g>
   </g>
   <g id="PathCollection_30">
    <g clip-path="url(#p7ff5b81e1d)">
     <use style="fill:#bfbf00;stroke:#bfbf00;" x="508.834285714" xlink:href="#m24f536de90" y="210.880458518"/>
    </g>
   </g>
   <g id="PathCollection_31">
    <g clip-path="url(#p7ff5b81e1d)">
     <use style="fill:#bf00bf;stroke:#bf00bf;" x="528.603428571" xlink:href="#mc0ba416f0c" y="196.178727408"/>
    </g>
   </g>
   <g id="PathCollection_32">
    <g clip-path="url(#p7ff5b81e1d)">
     <use style="fill:#ff0000;stroke:#ff0000;" x="538.806857143" xlink:href="#m388a7c096d" y="170.003695469"/>
    </g>
   </g>
   <g id="PathCollection_33">
    <g clip-path="url(#p7ff5b81e1d)">
     <use style="fill:#bfbf00;stroke:#bfbf00;" x="533.067428571" xlink:href="#m24f536de90" y="205.166833057"/>
    </g>
   </g>
   <g id="PathCollection_34">
    <g clip-path="url(#p7ff5b81e1d)">
     <use style="fill:#ff0000;stroke:#ff0000;" x="547.734857143" xlink:href="#m388a7c096d" y="159.744181955"/>
    </g>
   </g>
   <g id="PathCollection_35">
    <g clip-path="url(#p7ff5b81e1d)">
     <use style="fill:#bfbf00;stroke:#bfbf00;" x="545.184" xlink:href="#m24f536de90" y="181.58325173"/>
    </g>
   </g>
   <g id="PathCollection_36">
    <g clip-path="url(#p7ff5b81e1d)">
     <use style="fill:#bf00bf;stroke:#bf00bf;" x="550.285714286" xlink:href="#mc0ba416f0c" y="173.515685525"/>
    </g>
   </g>
   <g id="PathCollection_37">
    <g clip-path="url(#p7ff5b81e1d)">
     <use style="fill:#ff0000;stroke:#ff0000;" x="599.389714286" xlink:href="#m388a7c096d" y="158.615036835"/>
    </g>
   </g>
   <g id="PathCollection_38">
    <g clip-path="url(#p7ff5b81e1d)">
     <use style="fill:#bfbf00;stroke:#bfbf00;" x="596.201142857" xlink:href="#m24f536de90" y="183.044238082"/>
    </g>
   </g>
   <g id="PathCollection_39">
    <g clip-path="url(#p7ff5b81e1d)">
     <use style="fill:#ff0000;stroke:#ff0000;" x="605.766857143" xlink:href="#m388a7c096d" y="149.173052063"/>
    </g>
   </g>
   <g id="PathCollection_40">
    <g clip-path="url(#p7ff5b81e1d)">
     <use style="fill:#bfbf00;stroke:#bfbf00;" x="601.940571429" xlink:href="#m24f536de90" y="169.618285828"/>
    </g>
   </g>
   <g id="PathCollection_41">
    <g clip-path="url(#p7ff5b81e1d)">
     <use style="fill:#bf00bf;stroke:#bf00bf;" x="608.955428571" xlink:href="#mc0ba416f0c" y="160.286518692"/>
    </g>
   </g>
   <g id="PathCollection_42">
    <g clip-path="url(#p7ff5b81e1d)">
     <use style="fill:#ff0000;stroke:#ff0000;" x="619.796571429" xlink:href="#m388a7c096d" y="117.112350042"/>
    </g>
   </g>
   <g id="PathCollection_43">
    <g clip-path="url(#p7ff5b81e1d)">
     <use style="fill:#bfbf00;stroke:#bfbf00;" x="614.057142857" xlink:href="#m24f536de90" y="168.711815043"/>
    </g>
   </g>
   <g id="PathCollection_44">
    <g clip-path="url(#p7ff5b81e1d)">
     <use style="fill:#ff0000;stroke:#ff0000;" x="645.305142857" xlink:href="#m388a7c096d" y="117.335067316"/>
    </g>
   </g>
   <g id="PathCollection_45">
    <g clip-path="url(#p7ff5b81e1d)">
     <use style="fill:#bfbf00;stroke:#bfbf00;" x="641.478857143" xlink:href="#m24f536de90" y="154.966834264"/>
    </g>
   </g>
   <g id="PathCollection_46">
    <g clip-path="url(#p7ff5b81e1d)">
     <use style="fill:#bf00bf;stroke:#bf00bf;" x="646.580571429" xlink:href="#mc0ba416f0c" y="140.136408011"/>
    </g>
   </g>
   <g id="PathCollection_47">
    <g clip-path="url(#p7ff5b81e1d)">
     <use style="fill:#ff0000;stroke:#ff0000;" x="705.250285714" xlink:href="#m388a7c096d" y="106.574739976"/>
    </g>
   </g>
   <g id="PathCollection_48">
    <g clip-path="url(#p7ff5b81e1d)">
     <use style="fill:#bfbf00;stroke:#bfbf00;" x="695.684571429" xlink:href="#m24f536de90" y="154.061575"/>
    </g>
   </g>
   <g id="PathCollection_49">
    <g clip-path="url(#p7ff5b81e1d)">
     <use style="fill:#bf00bf;stroke:#bf00bf;" x="707.801142857" xlink:href="#mc0ba416f0c" y="130.699990839"/>
    </g>
   </g>
   <g id="line2d_1">
    <path clip-path="url(#p7ff5b81e1d)" d="
M72 313.05
L72.6377 310.518
L73.2754 309.306
L74.5509 310.041
L77.7394 310.372
L79.6526 310.488
L81.5657 310.734
L84.1166 311.769
L89.2183 312.065
L92.4069 311.963
L94.32 312.575
L95.5954 312.53
L96.8709 312.405
L98.1463 312.385
L100.059 311.849
L103.886 312.32
L105.161 312.433
L107.074 312.713
L108.35 312.736
L110.263 312.538
L111.538 312.47
L112.814 312.333
L115.365 312.451
L119.191 312.555
L121.104 312.073
L125.568 312.606
L130.032 312.74
L131.307 312.65
L133.858 312.723
L136.409 312.851
L137.685 313.272
L138.96 313.645
L140.873 313.71
L144.699 313.699
L145.337 313.655
L147.25 313.251
L151.714 313.908
L154.265 313.896
L155.541 313.788
L162.555 314.087
L163.831 313.751
L165.106 313.607
L174.034 313.506
L175.31 313.394
L176.585 313.519
L178.498 313.683
L180.411 313.689
L181.049 313.569
L181.687 312.957
L182.325 311.171
L182.962 308.49
L183.6 306.659
L184.238 306.372
L186.789 308.464
L188.064 309.15
L190.615 310.11
L192.528 310.64
L195.717 311.276
L198.267 311.479
L200.818 311.711
L202.731 311.814
L205.92 312.149
L208.471 312.25
L209.109 312.277
L209.746 311.967
L210.384 310.522
L211.659 304.651
L212.297 303.697
L212.935 304.263
L214.21 306.057
L215.486 307.272
L216.761 308.065
L218.674 308.873
L221.225 309.574
L223.138 309.828
L225.051 310.209
L233.342 311.005
L237.168 311.288
L239.719 311.296
L242.27 311.429
L246.096 311.578
L246.734 311.374
L247.371 310.984
L248.009 310.827
L249.285 311.276
L251.198 311.659
L253.111 312.321
L254.386 312.17
L258.213 312.013
L260.763 312.268
L263.314 312.535
L265.865 312.644
L270.329 312.688
L272.242 312.58
L277.344 311.778
L279.895 312.184
L281.808 312.526
L283.083 312.543
L284.359 312.561
L286.272 312.773
L288.823 312.542
L290.736 312.99
L294.562 313.426
L296.475 313.64
L298.389 313.399
L301.577 313.367
L304.128 312.967
L307.317 313.059
L307.954 312.831
L308.592 311.49
L309.23 307.522
L309.867 301.407
L310.505 296.73
L311.143 295.496
L311.781 296.305
L313.056 298.464
L314.331 299.733
L316.245 301.324
L316.882 301.741
L318.158 302.184
L321.346 303
L321.984 302.371
L322.622 299.668
L323.259 295.028
L323.897 291.253
L324.535 289.905
L325.173 290.234
L325.81 290.936
L326.448 290.691
L328.361 286.518
L328.999 286.446
L331.55 289.902
L332.825 290.963
L334.101 291.686
L336.014 292.505
L337.927 293.812
L339.84 294.553
L341.753 295.85
L342.391 296.105
L343.029 296.082
L344.304 295.487
L344.942 295.615
L346.855 296.686
L348.768 297.347
L353.232 298.366
L355.783 299.093
L359.609 299.916
L364.073 300.318
L365.986 300.451
L367.262 300.547
L369.175 300.358
L371.088 299.582
L372.363 299.506
L376.827 299.703
L381.291 300.445
L384.48 299.587
L385.118 299.158
L386.393 297.476
L387.031 297.471
L387.669 297.892
L388.306 297.995
L389.582 297.554
L390.219 297.676
L391.495 298.272
L393.408 298.799
L394.046 298.488
L394.683 296.509
L395.321 291.891
L395.959 286.449
L396.597 283.172
L397.234 282.635
L397.872 283.661
L399.147 286.275
L399.785 287.159
L400.423 287.559
L401.061 286.588
L401.698 282.341
L402.974 268.056
L403.611 266.192
L404.249 267.866
L405.525 272.641
L406.162 273.975
L406.8 274.557
L407.438 274.364
L408.075 272.606
L408.713 267.286
L409.351 259.232
L409.989 254.545
L410.626 255.718
L411.264 258.863
L411.902 261.053
L412.539 261.613
L413.177 259.067
L414.453 247.88
L415.09 248.283
L416.366 256.1
L417.003 258.374
L417.641 258.733
L418.917 256.436
L419.554 256.4
L420.192 257.371
L420.83 258.686
L421.467 259.723
L422.743 261.026
L424.656 262.377
L426.569 263.577
L427.845 264.478
L428.482 264.183
L429.12 261.943
L429.758 255.98
L430.395 247.788
L431.033 243.209
L431.671 243.942
L432.946 248.899
L433.584 250.352
L434.222 251.297
L435.497 252.673
L436.773 253.785
L437.41 254.122
L438.048 254.299
L439.323 254.443
L440.599 255.02
L441.237 255.125
L442.512 254.974
L443.15 255.142
L444.425 255.712
L446.976 256.53
L448.889 257.247
L450.165 257.916
L450.802 257.867
L451.44 255.845
L452.078 247.411
L452.715 232.326
L453.353 221.538
L453.991 221.949
L455.266 233.955
L455.904 237.555
L456.542 239.68
L457.179 240.721
L457.817 240.366
L459.093 237.387
L459.73 237.321
L460.368 238.187
L461.643 240.421
L462.281 241.224
L463.557 242.278
L464.194 242.583
L464.832 242.615
L466.107 242.089
L466.745 242.532
L467.383 243.364
L468.021 243.379
L468.658 240.504
L469.934 228.3
L470.571 227.108
L471.209 228.376
L471.847 226.996
L473.122 214.739
L473.76 215.362
L475.035 225.568
L475.673 228.502
L476.311 230.208
L476.949 231.327
L478.224 232.91
L478.862 233.474
L479.499 233.79
L480.137 233.737
L481.413 233.316
L482.688 233.294
L483.326 233.172
L483.963 232.601
L484.601 230.629
L485.239 225.271
L485.877 216.226
L486.514 210.574
L487.152 213.343
L487.79 219.703
L488.427 224.419
L489.065 226.946
L489.703 228.359
L490.978 230.169
L491.616 230.715
L492.254 231.003
L492.891 231.086
L493.529 230.875
L494.805 229.727
L495.442 229.36
L496.08 227.602
L496.718 220.824
L497.993 189.724
L498.631 185.173
L499.269 190.551
L500.544 204.602
L501.182 208.869
L501.819 211.347
L502.457 211.311
L503.095 205.719
L503.733 196.51
L504.37 193.37
L505.646 203.555
L506.283 206.59
L506.921 208.081
L508.197 210.175
L508.834 210.88
L509.472 210.852
L512.023 209.157
L512.661 208.689
L513.298 208.764
L513.936 209.234
L514.574 209.173
L515.211 208.637
L515.849 208.271
L516.487 208.321
L517.762 208.723
L519.038 208.812
L519.038 208.812" style="fill:none;stroke:#0000ff;stroke-linecap:square;"/>
   </g>
   <g id="patch_3">
    <path d="
M72 43.2
L518.4 43.2" style="fill:none;stroke:#000000;stroke-linecap:square;stroke-linejoin:miter;"/>
   </g>
   <g id="patch_4">
    <path d="
M518.4 388.8
L518.4 43.2" style="fill:none;stroke:#000000;stroke-linecap:square;stroke-linejoin:miter;"/>
   </g>
   <g id="patch_5">
    <path d="
M72 388.8
L518.4 388.8" style="fill:none;stroke:#000000;stroke-linecap:square;stroke-linejoin:miter;"/>
   </g>
   <g id="patch_6">
    <path d="
M72 388.8
L72 43.2" style="fill:none;stroke:#000000;stroke-linecap:square;stroke-linejoin:miter;"/>
   </g>
   <g id="matplotlib.axis_1">
    <g id="xtick_1">
     <g id="line2d_2">
      <path clip-path="url(#p7ff5b81e1d)" d="
M72 388.8
L72 43.2" style="fill:none;stroke:#000000;stroke-dasharray:1.000000,3.000000;stroke-dashoffset:0.0;stroke-width:0.5;"/>
     </g>
     <g id="line2d_3">
      <defs>
       <path d="
M0 0
L0 -4" id="m93b0483c22" style="stroke:#000000;stroke-width:0.5;"/>
      </defs>
      <g>
       <use style="stroke:#000000;stroke-width:0.5;" x="72.0" xlink:href="#m93b0483c22" y="388.8"/>
      </g>
     </g>
     <g id="line2d_4">
      <defs>
       <path d="
M0 0
L0 4" id="m741efc42ff" style="stroke:#000000;stroke-width:0.5;"/>
      </defs>
      <g>
       <use style="stroke:#000000;stroke-width:0.5;" x="72.0" xlink:href="#m741efc42ff" y="43.2"/>
      </g>
     </g>
     <g id="text_1">
      <!-- 0 -->
      <defs>
       <path d="
M31.7812 66.4062
Q24.1719 66.4062 20.3281 58.9062
Q16.5 51.4219 16.5 36.375
Q16.5 21.3906 20.3281 13.8906
Q24.1719 6.39062 31.7812 6.39062
Q39.4531 6.39062 43.2812 13.8906
Q47.125 21.3906 47.125 36.375
Q47.125 51.4219 43.2812 58.9062
Q39.4531 66.4062 31.7812 66.4062
M31.7812 74.2188
Q44.0469 74.2188 50.5156 64.5156
Q56.9844 54.8281 56.9844 36.375
Q56.9844 17.9688 50.5156 8.26562
Q44.0469 -1.42188 31.7812 -1.42188
Q19.5312 -1.42188 13.0625 8.26562
Q6.59375 17.9688 6.59375 36.375
Q6.59375 54.8281 13.0625 64.5156
Q19.5312 74.2188 31.7812 74.2188" id="BitstreamVeraSans-Roman-30"/>
      </defs>
      <g transform="translate(68.9765625 401.918125)scale(0.12 -0.12)">
       <use xlink:href="#BitstreamVeraSans-Roman-30"/>
      </g>
     </g>
    </g>
    <g id="xtick_2">
     <g id="line2d_5">
      <path clip-path="url(#p7ff5b81e1d)" d="
M135.771 388.8
L135.771 43.2" style="fill:none;stroke:#000000;stroke-dasharray:1.000000,3.000000;stroke-dashoffset:0.0;stroke-width:0.5;"/>
     </g>
     <g id="line2d_6">
      <g>
       <use style="stroke:#000000;stroke-width:0.5;" x="135.771428571" xlink:href="#m93b0483c22" y="388.8"/>
      </g>
     </g>
     <g id="line2d_7">
      <g>
       <use style="stroke:#000000;stroke-width:0.5;" x="135.771428571" xlink:href="#m741efc42ff" y="43.2"/>
      </g>
     </g>
     <g id="text_2">
      <!-- 100 -->
      <defs>
       <path d="
M12.4062 8.29688
L28.5156 8.29688
L28.5156 63.9219
L10.9844 60.4062
L10.9844 69.3906
L28.4219 72.9062
L38.2812 72.9062
L38.2812 8.29688
L54.3906 8.29688
L54.3906 0
L12.4062 0
z
" id="BitstreamVeraSans-Roman-31"/>
      </defs>
      <g transform="translate(125.376428571 401.918125)scale(0.12 -0.12)">
       <use xlink:href="#BitstreamVeraSans-Roman-31"/>
       <use x="63.623046875" xlink:href="#BitstreamVeraSans-Roman-30"/>
       <use x="127.24609375" xlink:href="#BitstreamVeraSans-Roman-30"/>
      </g>
     </g>
    </g>
    <g id="xtick_3">
     <g id="line2d_8">
      <path clip-path="url(#p7ff5b81e1d)" d="
M199.543 388.8
L199.543 43.2" style="fill:none;stroke:#000000;stroke-dasharray:1.000000,3.000000;stroke-dashoffset:0.0;stroke-width:0.5;"/>
     </g>
     <g id="line2d_9">
      <g>
       <use style="stroke:#000000;stroke-width:0.5;" x="199.542857143" xlink:href="#m93b0483c22" y="388.8"/>
      </g>
     </g>
     <g id="line2d_10">
      <g>
       <use style="stroke:#000000;stroke-width:0.5;" x="199.542857143" xlink:href="#m741efc42ff" y="43.2"/>
      </g>
     </g>
     <g id="text_3">
      <!-- 200 -->
      <defs>
       <path d="
M19.1875 8.29688
L53.6094 8.29688
L53.6094 0
L7.32812 0
L7.32812 8.29688
Q12.9375 14.1094 22.625 23.8906
Q32.3281 33.6875 34.8125 36.5312
Q39.5469 41.8438 41.4219 45.5312
Q43.3125 49.2188 43.3125 52.7812
Q43.3125 58.5938 39.2344 62.25
Q35.1562 65.9219 28.6094 65.9219
Q23.9688 65.9219 18.8125 64.3125
Q13.6719 62.7031 7.8125 59.4219
L7.8125 69.3906
Q13.7656 71.7812 18.9375 73
Q24.125 74.2188 28.4219 74.2188
Q39.75 74.2188 46.4844 68.5469
Q53.2188 62.8906 53.2188 53.4219
Q53.2188 48.9219 51.5312 44.8906
Q49.8594 40.875 45.4062 35.4062
Q44.1875 33.9844 37.6406 27.2188
Q31.1094 20.4531 19.1875 8.29688" id="BitstreamVeraSans-Roman-32"/>
      </defs>
      <g transform="translate(188.928482143 401.918125)scale(0.12 -0.12)">
       <use xlink:href="#BitstreamVeraSans-Roman-32"/>
       <use x="63.623046875" xlink:href="#BitstreamVeraSans-Roman-30"/>
       <use x="127.24609375" xlink:href="#BitstreamVeraSans-Roman-30"/>
      </g>
     </g>
    </g>
    <g id="xtick_4">
     <g id="line2d_11">
      <path clip-path="url(#p7ff5b81e1d)" d="
M263.314 388.8
L263.314 43.2" style="fill:none;stroke:#000000;stroke-dasharray:1.000000,3.000000;stroke-dashoffset:0.0;stroke-width:0.5;"/>
     </g>
     <g id="line2d_12">
      <g>
       <use style="stroke:#000000;stroke-width:0.5;" x="263.314285714" xlink:href="#m93b0483c22" y="388.8"/>
      </g>
     </g>
     <g id="line2d_13">
      <g>
       <use style="stroke:#000000;stroke-width:0.5;" x="263.314285714" xlink:href="#m741efc42ff" y="43.2"/>
      </g>
     </g>
     <g id="text_4">
      <!-- 300 -->
      <defs>
       <path d="
M40.5781 39.3125
Q47.6562 37.7969 51.625 33
Q55.6094 28.2188 55.6094 21.1875
Q55.6094 10.4062 48.1875 4.48438
Q40.7656 -1.42188 27.0938 -1.42188
Q22.5156 -1.42188 17.6562 -0.515625
Q12.7969 0.390625 7.625 2.20312
L7.625 11.7188
Q11.7188 9.32812 16.5938 8.10938
Q21.4844 6.89062 26.8125 6.89062
Q36.0781 6.89062 40.9375 10.5469
Q45.7969 14.2031 45.7969 21.1875
Q45.7969 27.6406 41.2812 31.2656
Q36.7656 34.9062 28.7188 34.9062
L20.2188 34.9062
L20.2188 43.0156
L29.1094 43.0156
Q36.375 43.0156 40.2344 45.9219
Q44.0938 48.8281 44.0938 54.2969
Q44.0938 59.9062 40.1094 62.9062
Q36.1406 65.9219 28.7188 65.9219
Q24.6562 65.9219 20.0156 65.0312
Q15.375 64.1562 9.8125 62.3125
L9.8125 71.0938
Q15.4375 72.6562 20.3438 73.4375
Q25.25 74.2188 29.5938 74.2188
Q40.8281 74.2188 47.3594 69.1094
Q53.9062 64.0156 53.9062 55.3281
Q53.9062 49.2656 50.4375 45.0938
Q46.9688 40.9219 40.5781 39.3125" id="BitstreamVeraSans-Roman-33"/>
      </defs>
      <g transform="translate(252.717723214 401.918125)scale(0.12 -0.12)">
       <use xlink:href="#BitstreamVeraSans-Roman-33"/>
       <use x="63.623046875" xlink:href="#BitstreamVeraSans-Roman-30"/>
       <use x="127.24609375" xlink:href="#BitstreamVeraSans-Roman-30"/>
      </g>
     </g>
    </g>
    <g id="xtick_5">
     <g id="line2d_14">
      <path clip-path="url(#p7ff5b81e1d)" d="
M327.086 388.8
L327.086 43.2" style="fill:none;stroke:#000000;stroke-dasharray:1.000000,3.000000;stroke-dashoffset:0.0;stroke-width:0.5;"/>
     </g>
     <g id="line2d_15">
      <g>
       <use style="stroke:#000000;stroke-width:0.5;" x="327.085714286" xlink:href="#m93b0483c22" y="388.8"/>
      </g>
     </g>
     <g id="line2d_16">
      <g>
       <use style="stroke:#000000;stroke-width:0.5;" x="327.085714286" xlink:href="#m741efc42ff" y="43.2"/>
      </g>
     </g>
     <g id="text_5">
      <!-- 400 -->
      <defs>
       <path d="
M37.7969 64.3125
L12.8906 25.3906
L37.7969 25.3906
z

M35.2031 72.9062
L47.6094 72.9062
L47.6094 25.3906
L58.0156 25.3906
L58.0156 17.1875
L47.6094 17.1875
L47.6094 0
L37.7969 0
L37.7969 17.1875
L4.89062 17.1875
L4.89062 26.7031
z
" id="BitstreamVeraSans-Roman-34"/>
      </defs>
      <g transform="translate(316.325089286 401.918125)scale(0.12 -0.12)">
       <use xlink:href="#BitstreamVeraSans-Roman-34"/>
       <use x="63.623046875" xlink:href="#BitstreamVeraSans-Roman-30"/>
       <use x="127.24609375" xlink:href="#BitstreamVeraSans-Roman-30"/>
      </g>
     </g>
    </g>
    <g id="xtick_6">
     <g id="line2d_17">
      <path clip-path="url(#p7ff5b81e1d)" d="
M390.857 388.8
L390.857 43.2" style="fill:none;stroke:#000000;stroke-dasharray:1.000000,3.000000;stroke-dashoffset:0.0;stroke-width:0.5;"/>
     </g>
     <g id="line2d_18">
      <g>
       <use style="stroke:#000000;stroke-width:0.5;" x="390.857142857" xlink:href="#m93b0483c22" y="388.8"/>
      </g>
     </g>
     <g id="line2d_19">
      <g>
       <use style="stroke:#000000;stroke-width:0.5;" x="390.857142857" xlink:href="#m741efc42ff" y="43.2"/>
      </g>
     </g>
     <g id="text_6">
      <!-- 500 -->
      <defs>
       <path d="
M10.7969 72.9062
L49.5156 72.9062
L49.5156 64.5938
L19.8281 64.5938
L19.8281 46.7344
Q21.9688 47.4688 24.1094 47.8281
Q26.2656 48.1875 28.4219 48.1875
Q40.625 48.1875 47.75 41.5
Q54.8906 34.8125 54.8906 23.3906
Q54.8906 11.625 47.5625 5.09375
Q40.2344 -1.42188 26.9062 -1.42188
Q22.3125 -1.42188 17.5469 -0.640625
Q12.7969 0.140625 7.71875 1.70312
L7.71875 11.625
Q12.1094 9.23438 16.7969 8.0625
Q21.4844 6.89062 26.7031 6.89062
Q35.1562 6.89062 40.0781 11.3281
Q45.0156 15.7656 45.0156 23.3906
Q45.0156 31 40.0781 35.4375
Q35.1562 39.8906 26.7031 39.8906
Q22.75 39.8906 18.8125 39.0156
Q14.8906 38.1406 10.7969 36.2812
z
" id="BitstreamVeraSans-Roman-35"/>
      </defs>
      <g transform="translate(380.266205357 401.918125)scale(0.12 -0.12)">
       <use xlink:href="#BitstreamVeraSans-Roman-35"/>
       <use x="63.623046875" xlink:href="#BitstreamVeraSans-Roman-30"/>
       <use x="127.24609375" xlink:href="#BitstreamVeraSans-Roman-30"/>
      </g>
     </g>
    </g>
    <g id="xtick_7">
     <g id="line2d_20">
      <path clip-path="url(#p7ff5b81e1d)" d="
M454.629 388.8
L454.629 43.2" style="fill:none;stroke:#000000;stroke-dasharray:1.000000,3.000000;stroke-dashoffset:0.0;stroke-width:0.5;"/>
     </g>
     <g id="line2d_21">
      <g>
       <use style="stroke:#000000;stroke-width:0.5;" x="454.628571429" xlink:href="#m93b0483c22" y="388.8"/>
      </g>
     </g>
     <g id="line2d_22">
      <g>
       <use style="stroke:#000000;stroke-width:0.5;" x="454.628571429" xlink:href="#m741efc42ff" y="43.2"/>
      </g>
     </g>
     <g id="text_7">
      <!-- 600 -->
      <defs>
       <path d="
M33.0156 40.375
Q26.375 40.375 22.4844 35.8281
Q18.6094 31.2969 18.6094 23.3906
Q18.6094 15.5312 22.4844 10.9531
Q26.375 6.39062 33.0156 6.39062
Q39.6562 6.39062 43.5312 10.9531
Q47.4062 15.5312 47.4062 23.3906
Q47.4062 31.2969 43.5312 35.8281
Q39.6562 40.375 33.0156 40.375
M52.5938 71.2969
L52.5938 62.3125
Q48.875 64.0625 45.0938 64.9844
Q41.3125 65.9219 37.5938 65.9219
Q27.8281 65.9219 22.6719 59.3281
Q17.5312 52.7344 16.7969 39.4062
Q19.6719 43.6562 24.0156 45.9219
Q28.375 48.1875 33.5938 48.1875
Q44.5781 48.1875 50.9531 41.5156
Q57.3281 34.8594 57.3281 23.3906
Q57.3281 12.1562 50.6875 5.35938
Q44.0469 -1.42188 33.0156 -1.42188
Q20.3594 -1.42188 13.6719 8.26562
Q6.98438 17.9688 6.98438 36.375
Q6.98438 53.6562 15.1875 63.9375
Q23.3906 74.2188 37.2031 74.2188
Q40.9219 74.2188 44.7031 73.4844
Q48.4844 72.75 52.5938 71.2969" id="BitstreamVeraSans-Roman-36"/>
      </defs>
      <g transform="translate(443.993571429 401.918125)scale(0.12 -0.12)">
       <use xlink:href="#BitstreamVeraSans-Roman-36"/>
       <use x="63.623046875" xlink:href="#BitstreamVeraSans-Roman-30"/>
       <use x="127.24609375" xlink:href="#BitstreamVeraSans-Roman-30"/>
      </g>
     </g>
    </g>
    <g id="xtick_8">
     <g id="line2d_23">
      <path clip-path="url(#p7ff5b81e1d)" d="
M518.4 388.8
L518.4 43.2" style="fill:none;stroke:#000000;stroke-dasharray:1.000000,3.000000;stroke-dashoffset:0.0;stroke-width:0.5;"/>
     </g>
     <g id="line2d_24">
      <g>
       <use style="stroke:#000000;stroke-width:0.5;" x="518.4" xlink:href="#m93b0483c22" y="388.8"/>
      </g>
     </g>
     <g id="line2d_25">
      <g>
       <use style="stroke:#000000;stroke-width:0.5;" x="518.4" xlink:href="#m741efc42ff" y="43.2"/>
      </g>
     </g>
     <g id="text_8">
      <!-- 700 -->
      <defs>
       <path d="
M8.20312 72.9062
L55.0781 72.9062
L55.0781 68.7031
L28.6094 0
L18.3125 0
L43.2188 64.5938
L8.20312 64.5938
z
" id="BitstreamVeraSans-Roman-37"/>
      </defs>
      <g transform="translate(507.838125 401.918125)scale(0.12 -0.12)">
       <use xlink:href="#BitstreamVeraSans-Roman-37"/>
       <use x="63.623046875" xlink:href="#BitstreamVeraSans-Roman-30"/>
       <use x="127.24609375" xlink:href="#BitstreamVeraSans-Roman-30"/>
      </g>
     </g>
    </g>
    <g id="text_9">
     <!-- Seconds -->
     <defs>
      <path d="
M54.8906 33.0156
L54.8906 0
L45.9062 0
L45.9062 32.7188
Q45.9062 40.4844 42.875 44.3281
Q39.8438 48.1875 33.7969 48.1875
Q26.5156 48.1875 22.3125 43.5469
Q18.1094 38.9219 18.1094 30.9062
L18.1094 0
L9.07812 0
L9.07812 54.6875
L18.1094 54.6875
L18.1094 46.1875
Q21.3438 51.125 25.7031 53.5625
Q30.0781 56 35.7969 56
Q45.2188 56 50.0469 50.1719
Q54.8906 44.3438 54.8906 33.0156" id="BitstreamVeraSans-Roman-6e"/>
      <path d="
M30.6094 48.3906
Q23.3906 48.3906 19.1875 42.75
Q14.9844 37.1094 14.9844 27.2969
Q14.9844 17.4844 19.1562 11.8438
Q23.3438 6.20312 30.6094 6.20312
Q37.7969 6.20312 41.9844 11.8594
Q46.1875 17.5312 46.1875 27.2969
Q46.1875 37.0156 41.9844 42.7031
Q37.7969 48.3906 30.6094 48.3906
M30.6094 56
Q42.3281 56 49.0156 48.375
Q55.7188 40.7656 55.7188 27.2969
Q55.7188 13.875 49.0156 6.21875
Q42.3281 -1.42188 30.6094 -1.42188
Q18.8438 -1.42188 12.1719 6.21875
Q5.51562 13.875 5.51562 27.2969
Q5.51562 40.7656 12.1719 48.375
Q18.8438 56 30.6094 56" id="BitstreamVeraSans-Roman-6f"/>
      <path d="
M53.5156 70.5156
L53.5156 60.8906
Q47.9062 63.5781 42.9219 64.8906
Q37.9375 66.2188 33.2969 66.2188
Q25.25 66.2188 20.875 63.0938
Q16.5 59.9688 16.5 54.2031
Q16.5 49.3594 19.4062 46.8906
Q22.3125 44.4375 30.4219 42.9219
L36.375 41.7031
Q47.4062 39.5938 52.6562 34.2969
Q57.9062 29 57.9062 20.125
Q57.9062 9.51562 50.7969 4.04688
Q43.7031 -1.42188 29.9844 -1.42188
Q24.8125 -1.42188 18.9688 -0.25
Q13.1406 0.921875 6.89062 3.21875
L6.89062 13.375
Q12.8906 10.0156 18.6562 8.29688
Q24.4219 6.59375 29.9844 6.59375
Q38.4219 6.59375 43.0156 9.90625
Q47.6094 13.2344 47.6094 19.3906
Q47.6094 24.75 44.3125 27.7812
Q41.0156 30.8125 33.5 32.3281
L27.4844 33.5
Q16.4531 35.6875 11.5156 40.375
Q6.59375 45.0625 6.59375 53.4219
Q6.59375 63.0938 13.4062 68.6562
Q20.2188 74.2188 32.1719 74.2188
Q37.3125 74.2188 42.625 73.2812
Q47.9531 72.3594 53.5156 70.5156" id="BitstreamVeraSans-Roman-53"/>
      <path d="
M56.2031 29.5938
L56.2031 25.2031
L14.8906 25.2031
Q15.4844 15.9219 20.4844 11.0625
Q25.4844 6.20312 34.4219 6.20312
Q39.5938 6.20312 44.4531 7.46875
Q49.3125 8.73438 54.1094 11.2812
L54.1094 2.78125
Q49.2656 0.734375 44.1875 -0.34375
Q39.1094 -1.42188 33.8906 -1.42188
Q20.7969 -1.42188 13.1562 6.1875
Q5.51562 13.8125 5.51562 26.8125
Q5.51562 40.2344 12.7656 48.1094
Q20.0156 56 32.3281 56
Q43.3594 56 49.7812 48.8906
Q56.2031 41.7969 56.2031 29.5938
M47.2188 32.2344
Q47.125 39.5938 43.0938 43.9844
Q39.0625 48.3906 32.4219 48.3906
Q24.9062 48.3906 20.3906 44.1406
Q15.875 39.8906 15.1875 32.1719
z
" id="BitstreamVeraSans-Roman-65"/>
      <path d="
M45.4062 46.3906
L45.4062 75.9844
L54.3906 75.9844
L54.3906 0
L45.4062 0
L45.4062 8.20312
Q42.5781 3.32812 38.25 0.953125
Q33.9375 -1.42188 27.875 -1.42188
Q17.9688 -1.42188 11.7344 6.48438
Q5.51562 14.4062 5.51562 27.2969
Q5.51562 40.1875 11.7344 48.0938
Q17.9688 56 27.875 56
Q33.9375 56 38.25 53.625
Q42.5781 51.2656 45.4062 46.3906
M14.7969 27.2969
Q14.7969 17.3906 18.875 11.75
Q22.9531 6.10938 30.0781 6.10938
Q37.2031 6.10938 41.2969 11.75
Q45.4062 17.3906 45.4062 27.2969
Q45.4062 37.2031 41.2969 42.8438
Q37.2031 48.4844 30.0781 48.4844
Q22.9531 48.4844 18.875 42.8438
Q14.7969 37.2031 14.7969 27.2969" id="BitstreamVeraSans-Roman-64"/>
      <path d="
M44.2812 53.0781
L44.2812 44.5781
Q40.4844 46.5312 36.375 47.5
Q32.2812 48.4844 27.875 48.4844
Q21.1875 48.4844 17.8438 46.4375
Q14.5 44.3906 14.5 40.2812
Q14.5 37.1562 16.8906 35.375
Q19.2812 33.5938 26.5156 31.9844
L29.5938 31.2969
Q39.1562 29.25 43.1875 25.5156
Q47.2188 21.7812 47.2188 15.0938
Q47.2188 7.46875 41.1875 3.01562
Q35.1562 -1.42188 24.6094 -1.42188
Q20.2188 -1.42188 15.4531 -0.5625
Q10.6875 0.296875 5.42188 2
L5.42188 11.2812
Q10.4062 8.6875 15.2344 7.39062
Q20.0625 6.10938 24.8125 6.10938
Q31.1562 6.10938 34.5625 8.28125
Q37.9844 10.4531 37.9844 14.4062
Q37.9844 18.0625 35.5156 20.0156
Q33.0625 21.9688 24.7031 23.7812
L21.5781 24.5156
Q13.2344 26.2656 9.51562 29.9062
Q5.8125 33.5469 5.8125 39.8906
Q5.8125 47.6094 11.2812 51.7969
Q16.75 56 26.8125 56
Q31.7812 56 36.1719 55.2656
Q40.5781 54.5469 44.2812 53.0781" id="BitstreamVeraSans-Roman-73"/>
      <path d="
M48.7812 52.5938
L48.7812 44.1875
Q44.9688 46.2969 41.1406 47.3438
Q37.3125 48.3906 33.4062 48.3906
Q24.6562 48.3906 19.8125 42.8438
Q14.9844 37.3125 14.9844 27.2969
Q14.9844 17.2812 19.8125 11.7344
Q24.6562 6.20312 33.4062 6.20312
Q37.3125 6.20312 41.1406 7.25
Q44.9688 8.29688 48.7812 10.4062
L48.7812 2.09375
Q45.0156 0.34375 40.9844 -0.53125
Q36.9688 -1.42188 32.4219 -1.42188
Q20.0625 -1.42188 12.7812 6.34375
Q5.51562 14.1094 5.51562 27.2969
Q5.51562 40.6719 12.8594 48.3281
Q20.2188 56 33.0156 56
Q37.1562 56 41.1094 55.1406
Q45.0625 54.2969 48.7812 52.5938" id="BitstreamVeraSans-Roman-63"/>
     </defs>
     <g transform="translate(270.6796875 418.531875)scale(0.12 -0.12)">
      <use xlink:href="#BitstreamVeraSans-Roman-53"/>
      <use x="63.4765625" xlink:href="#BitstreamVeraSans-Roman-65"/>
      <use x="125.0" xlink:href="#BitstreamVeraSans-Roman-63"/>
      <use x="179.98046875" xlink:href="#BitstreamVeraSans-Roman-6f"/>
      <use x="241.162109375" xlink:href="#BitstreamVeraSans-Roman-6e"/>
      <use x="304.541015625" xlink:href="#BitstreamVeraSans-Roman-64"/>
      <use x="368.017578125" xlink:href="#BitstreamVeraSans-Roman-73"/>
     </g>
    </g>
   </g>
   <g id="matplotlib.axis_2">
    <g id="ytick_1">
     <g id="line2d_26">
      <path clip-path="url(#p7ff5b81e1d)" d="
M72 388.8
L518.4 388.8" style="fill:none;stroke:#000000;stroke-dasharray:1.000000,3.000000;stroke-dashoffset:0.0;stroke-width:0.5;"/>
     </g>
     <g id="line2d_27">
      <defs>
       <path d="
M0 0
L4 0" id="m728421d6d4" style="stroke:#000000;stroke-width:0.5;"/>
      </defs>
      <g>
       <use style="stroke:#000000;stroke-width:0.5;" x="72.0" xlink:href="#m728421d6d4" y="388.8"/>
      </g>
     </g>
     <g id="line2d_28">
      <defs>
       <path d="
M0 0
L-4 0" id="mcb0005524f" style="stroke:#000000;stroke-width:0.5;"/>
      </defs>
      <g>
       <use style="stroke:#000000;stroke-width:0.5;" x="518.4" xlink:href="#mcb0005524f" y="388.8"/>
      </g>
     </g>
     <g id="text_10">
      <!-- 0.0 -->
      <defs>
       <path d="
M10.6875 12.4062
L21 12.4062
L21 0
L10.6875 0
z
" id="BitstreamVeraSans-Roman-2e"/>
      </defs>
      <g transform="translate(50.504375 392.11125)scale(0.12 -0.12)">
       <use xlink:href="#BitstreamVeraSans-Roman-30"/>
       <use x="63.623046875" xlink:href="#BitstreamVeraSans-Roman-2e"/>
       <use x="95.41015625" xlink:href="#BitstreamVeraSans-Roman-30"/>
      </g>
     </g>
    </g>
    <g id="ytick_2">
     <g id="line2d_29">
      <path clip-path="url(#p7ff5b81e1d)" d="
M72 331.2
L518.4 331.2" style="fill:none;stroke:#000000;stroke-dasharray:1.000000,3.000000;stroke-dashoffset:0.0;stroke-width:0.5;"/>
     </g>
     <g id="line2d_30">
      <g>
       <use style="stroke:#000000;stroke-width:0.5;" x="72.0" xlink:href="#m728421d6d4" y="331.2"/>
      </g>
     </g>
     <g id="line2d_31">
      <g>
       <use style="stroke:#000000;stroke-width:0.5;" x="518.4" xlink:href="#mcb0005524f" y="331.2"/>
      </g>
     </g>
     <g id="text_11">
      <!-- 0.5 -->
      <g transform="translate(50.755625 334.51125)scale(0.12 -0.12)">
       <use xlink:href="#BitstreamVeraSans-Roman-30"/>
       <use x="63.623046875" xlink:href="#BitstreamVeraSans-Roman-2e"/>
       <use x="95.41015625" xlink:href="#BitstreamVeraSans-Roman-35"/>
      </g>
     </g>
    </g>
    <g id="ytick_3">
     <g id="line2d_32">
      <path clip-path="url(#p7ff5b81e1d)" d="
M72 273.6
L518.4 273.6" style="fill:none;stroke:#000000;stroke-dasharray:1.000000,3.000000;stroke-dashoffset:0.0;stroke-width:0.5;"/>
     </g>
     <g id="line2d_33">
      <g>
       <use style="stroke:#000000;stroke-width:0.5;" x="72.0" xlink:href="#m728421d6d4" y="273.6"/>
      </g>
     </g>
     <g id="line2d_34">
      <g>
       <use style="stroke:#000000;stroke-width:0.5;" x="518.4" xlink:href="#mcb0005524f" y="273.6"/>
      </g>
     </g>
     <g id="text_12">
      <!-- 1.0 -->
      <g transform="translate(51.03125 276.91125)scale(0.12 -0.12)">
       <use xlink:href="#BitstreamVeraSans-Roman-31"/>
       <use x="63.623046875" xlink:href="#BitstreamVeraSans-Roman-2e"/>
       <use x="95.41015625" xlink:href="#BitstreamVeraSans-Roman-30"/>
      </g>
     </g>
    </g>
    <g id="ytick_4">
     <g id="line2d_35">
      <path clip-path="url(#p7ff5b81e1d)" d="
M72 216
L518.4 216" style="fill:none;stroke:#000000;stroke-dasharray:1.000000,3.000000;stroke-dashoffset:0.0;stroke-width:0.5;"/>
     </g>
     <g id="line2d_36">
      <g>
       <use style="stroke:#000000;stroke-width:0.5;" x="72.0" xlink:href="#m728421d6d4" y="216.0"/>
      </g>
     </g>
     <g id="line2d_37">
      <g>
       <use style="stroke:#000000;stroke-width:0.5;" x="518.4" xlink:href="#mcb0005524f" y="216.0"/>
      </g>
     </g>
     <g id="text_13">
      <!-- 1.5 -->
      <g transform="translate(51.2825 219.31125)scale(0.12 -0.12)">
       <use xlink:href="#BitstreamVeraSans-Roman-31"/>
       <use x="63.623046875" xlink:href="#BitstreamVeraSans-Roman-2e"/>
       <use x="95.41015625" xlink:href="#BitstreamVeraSans-Roman-35"/>
      </g>
     </g>
    </g>
    <g id="ytick_5">
     <g id="line2d_38">
      <path clip-path="url(#p7ff5b81e1d)" d="
M72 158.4
L518.4 158.4" style="fill:none;stroke:#000000;stroke-dasharray:1.000000,3.000000;stroke-dashoffset:0.0;stroke-width:0.5;"/>
     </g>
     <g id="line2d_39">
      <g>
       <use style="stroke:#000000;stroke-width:0.5;" x="72.0" xlink:href="#m728421d6d4" y="158.4"/>
      </g>
     </g>
     <g id="line2d_40">
      <g>
       <use style="stroke:#000000;stroke-width:0.5;" x="518.4" xlink:href="#mcb0005524f" y="158.4"/>
      </g>
     </g>
     <g id="text_14">
      <!-- 2.0 -->
      <g transform="translate(50.5925 161.71125)scale(0.12 -0.12)">
       <use xlink:href="#BitstreamVeraSans-Roman-32"/>
       <use x="63.623046875" xlink:href="#BitstreamVeraSans-Roman-2e"/>
       <use x="95.41015625" xlink:href="#BitstreamVeraSans-Roman-30"/>
      </g>
     </g>
    </g>
    <g id="ytick_6">
     <g id="line2d_41">
      <path clip-path="url(#p7ff5b81e1d)" d="
M72 100.8
L518.4 100.8" style="fill:none;stroke:#000000;stroke-dasharray:1.000000,3.000000;stroke-dashoffset:0.0;stroke-width:0.5;"/>
     </g>
     <g id="line2d_42">
      <g>
       <use style="stroke:#000000;stroke-width:0.5;" x="72.0" xlink:href="#m728421d6d4" y="100.8"/>
      </g>
     </g>
     <g id="line2d_43">
      <g>
       <use style="stroke:#000000;stroke-width:0.5;" x="518.4" xlink:href="#mcb0005524f" y="100.8"/>
      </g>
     </g>
     <g id="text_15">
      <!-- 2.5 -->
      <g transform="translate(50.84375 104.11125)scale(0.12 -0.12)">
       <use xlink:href="#BitstreamVeraSans-Roman-32"/>
       <use x="63.623046875" xlink:href="#BitstreamVeraSans-Roman-2e"/>
       <use x="95.41015625" xlink:href="#BitstreamVeraSans-Roman-35"/>
      </g>
     </g>
    </g>
    <g id="ytick_7">
     <g id="line2d_44">
      <path clip-path="url(#p7ff5b81e1d)" d="
M72 43.2
L518.4 43.2" style="fill:none;stroke:#000000;stroke-dasharray:1.000000,3.000000;stroke-dashoffset:0.0;stroke-width:0.5;"/>
     </g>
     <g id="line2d_45">
      <g>
       <use style="stroke:#000000;stroke-width:0.5;" x="72.0" xlink:href="#m728421d6d4" y="43.2"/>
      </g>
     </g>
     <g id="line2d_46">
      <g>
       <use style="stroke:#000000;stroke-width:0.5;" x="518.4" xlink:href="#mcb0005524f" y="43.2"/>
      </g>
     </g>
     <g id="text_16">
      <!-- 3.0 -->
      <g transform="translate(50.628125 46.51125)scale(0.12 -0.12)">
       <use xlink:href="#BitstreamVeraSans-Roman-33"/>
       <use x="63.623046875" xlink:href="#BitstreamVeraSans-Roman-2e"/>
       <use x="95.41015625" xlink:href="#BitstreamVeraSans-Roman-30"/>
      </g>
     </g>
    </g>
    <g id="text_17">
     <!-- uS -->
     <defs>
      <path d="
M8.5 21.5781
L8.5 54.6875
L17.4844 54.6875
L17.4844 21.9219
Q17.4844 14.1562 20.5 10.2656
Q23.5312 6.39062 29.5938 6.39062
Q36.8594 6.39062 41.0781 11.0312
Q45.3125 15.6719 45.3125 23.6875
L45.3125 54.6875
L54.2969 54.6875
L54.2969 0
L45.3125 0
L45.3125 8.40625
Q42.0469 3.42188 37.7188 1
Q33.4062 -1.42188 27.6875 -1.42188
Q18.2656 -1.42188 13.375 4.4375
Q8.5 10.2969 8.5 21.5781" id="BitstreamVeraSans-Roman-75"/>
     </defs>
     <g transform="translate(43.00875 222.766875)rotate(-90.0)scale(0.12 -0.12)">
      <use xlink:href="#BitstreamVeraSans-Roman-75"/>
      <use x="63.37890625" xlink:href="#BitstreamVeraSans-Roman-53"/>
     </g>
    </g>
   </g>
   <g id="text_18">
    <!-- Peak and Half Time Recovery detection -->
    <defs>
     <path id="BitstreamVeraSans-Roman-20"/>
     <path d="
M41.1094 46.2969
Q39.5938 47.1719 37.8125 47.5781
Q36.0312 48 33.8906 48
Q26.2656 48 22.1875 43.0469
Q18.1094 38.0938 18.1094 28.8125
L18.1094 0
L9.07812 0
L9.07812 54.6875
L18.1094 54.6875
L18.1094 46.1875
Q20.9531 51.1719 25.4844 53.5781
Q30.0312 56 36.5312 56
Q37.4531 56 38.5781 55.875
Q39.7031 55.7656 41.0625 55.5156
z
" id="BitstreamVeraSans-Roman-72"/>
     <path d="
M52 44.1875
Q55.375 50.25 60.0625 53.125
Q64.75 56 71.0938 56
Q79.6406 56 84.2812 50.0156
Q88.9219 44.0469 88.9219 33.0156
L88.9219 0
L79.8906 0
L79.8906 32.7188
Q79.8906 40.5781 77.0938 44.375
Q74.3125 48.1875 68.6094 48.1875
Q61.625 48.1875 57.5625 43.5469
Q53.5156 38.9219 53.5156 30.9062
L53.5156 0
L44.4844 0
L44.4844 32.7188
Q44.4844 40.625 41.7031 44.4062
Q38.9219 48.1875 33.1094 48.1875
Q26.2188 48.1875 22.1562 43.5312
Q18.1094 38.875 18.1094 30.9062
L18.1094 0
L9.07812 0
L9.07812 54.6875
L18.1094 54.6875
L18.1094 46.1875
Q21.1875 51.2188 25.4844 53.6094
Q29.7812 56 35.6875 56
Q41.6562 56 45.8281 52.9688
Q50 49.9531 52 44.1875" id="BitstreamVeraSans-Roman-6d"/>
     <path d="
M9.42188 75.9844
L18.4062 75.9844
L18.4062 0
L9.42188 0
z
" id="BitstreamVeraSans-Roman-6c"/>
     <path d="
M9.07812 75.9844
L18.1094 75.9844
L18.1094 31.1094
L44.9219 54.6875
L56.3906 54.6875
L27.3906 29.1094
L57.625 0
L45.9062 0
L18.1094 26.7031
L18.1094 0
L9.07812 0
z
" id="BitstreamVeraSans-Roman-6b"/>
     <path d="
M19.6719 64.7969
L19.6719 37.4062
L32.0781 37.4062
Q38.9688 37.4062 42.7188 40.9688
Q46.4844 44.5312 46.4844 51.125
Q46.4844 57.6719 42.7188 61.2344
Q38.9688 64.7969 32.0781 64.7969
z

M9.8125 72.9062
L32.0781 72.9062
Q44.3438 72.9062 50.6094 67.3594
Q56.8906 61.8125 56.8906 51.125
Q56.8906 40.3281 50.6094 34.8125
Q44.3438 29.2969 32.0781 29.2969
L19.6719 29.2969
L19.6719 0
L9.8125 0
z
" id="BitstreamVeraSans-Roman-50"/>
     <path d="
M44.3906 34.1875
Q47.5625 33.1094 50.5625 29.5938
Q53.5625 26.0781 56.5938 19.9219
L66.6094 0
L56 0
L46.6875 18.7031
Q43.0625 26.0312 39.6719 28.4219
Q36.2812 30.8125 30.4219 30.8125
L19.6719 30.8125
L19.6719 0
L9.8125 0
L9.8125 72.9062
L32.0781 72.9062
Q44.5781 72.9062 50.7344 67.6719
Q56.8906 62.4531 56.8906 51.9062
Q56.8906 45.0156 53.6875 40.4688
Q50.4844 35.9375 44.3906 34.1875
M19.6719 64.7969
L19.6719 38.9219
L32.0781 38.9219
Q39.2031 38.9219 42.8438 42.2188
Q46.4844 45.5156 46.4844 51.9062
Q46.4844 58.2969 42.8438 61.5469
Q39.2031 64.7969 32.0781 64.7969
z
" id="BitstreamVeraSans-Roman-52"/>
     <path d="
M-0.296875 72.9062
L61.375 72.9062
L61.375 64.5938
L35.5 64.5938
L35.5 0
L25.5938 0
L25.5938 64.5938
L-0.296875 64.5938
z
" id="BitstreamVeraSans-Roman-54"/>
     <path d="
M32.1719 -5.07812
Q28.375 -14.8438 24.75 -17.8125
Q21.1406 -20.7969 15.0938 -20.7969
L7.90625 -20.7969
L7.90625 -13.2812
L13.1875 -13.2812
Q16.8906 -13.2812 18.9375 -11.5156
Q21 -9.76562 23.4844 -3.21875
L25.0938 0.875
L2.98438 54.6875
L12.5 54.6875
L29.5938 11.9219
L46.6875 54.6875
L56.2031 54.6875
z
" id="BitstreamVeraSans-Roman-79"/>
     <path d="
M2.98438 54.6875
L12.5 54.6875
L29.5938 8.79688
L46.6875 54.6875
L56.2031 54.6875
L35.6875 0
L23.4844 0
z
" id="BitstreamVeraSans-Roman-76"/>
     <path d="
M9.42188 54.6875
L18.4062 54.6875
L18.4062 0
L9.42188 0
z

M9.42188 75.9844
L18.4062 75.9844
L18.4062 64.5938
L9.42188 64.5938
z
" id="BitstreamVeraSans-Roman-69"/>
     <path d="
M18.3125 70.2188
L18.3125 54.6875
L36.8125 54.6875
L36.8125 47.7031
L18.3125 47.7031
L18.3125 18.0156
Q18.3125 11.3281 20.1406 9.42188
Q21.9688 7.51562 27.5938 7.51562
L36.8125 7.51562
L36.8125 0
L27.5938 0
Q17.1875 0 13.2344 3.875
Q9.28125 7.76562 9.28125 18.0156
L9.28125 47.7031
L2.6875 47.7031
L2.6875 54.6875
L9.28125 54.6875
L9.28125 70.2188
z
" id="BitstreamVeraSans-Roman-74"/>
     <path d="
M37.1094 75.9844
L37.1094 68.5
L28.5156 68.5
Q23.6875 68.5 21.7969 66.5469
Q19.9219 64.5938 19.9219 59.5156
L19.9219 54.6875
L34.7188 54.6875
L34.7188 47.7031
L19.9219 47.7031
L19.9219 0
L10.8906 0
L10.8906 47.7031
L2.29688 47.7031
L2.29688 54.6875
L10.8906 54.6875
L10.8906 58.5
Q10.8906 67.625 15.1406 71.7969
Q19.3906 75.9844 28.6094 75.9844
z
" id="BitstreamVeraSans-Roman-66"/>
     <path d="
M34.2812 27.4844
Q23.3906 27.4844 19.1875 25
Q14.9844 22.5156 14.9844 16.5
Q14.9844 11.7188 18.1406 8.90625
Q21.2969 6.10938 26.7031 6.10938
Q34.1875 6.10938 38.7031 11.4062
Q43.2188 16.7031 43.2188 25.4844
L43.2188 27.4844
z

M52.2031 31.2031
L52.2031 0
L43.2188 0
L43.2188 8.29688
Q40.1406 3.32812 35.5469 0.953125
Q30.9531 -1.42188 24.3125 -1.42188
Q15.9219 -1.42188 10.9531 3.29688
Q6 8.01562 6 15.9219
Q6 25.1406 12.1719 29.8281
Q18.3594 34.5156 30.6094 34.5156
L43.2188 34.5156
L43.2188 35.4062
Q43.2188 41.6094 39.1406 45
Q35.0625 48.3906 27.6875 48.3906
Q23 48.3906 18.5469 47.2656
Q14.1094 46.1406 10.0156 43.8906
L10.0156 52.2031
Q14.9375 54.1094 19.5781 55.0469
Q24.2188 56 28.6094 56
Q40.4844 56 46.3438 49.8438
Q52.2031 43.7031 52.2031 31.2031" id="BitstreamVeraSans-Roman-61"/>
     <path d="
M9.8125 72.9062
L19.6719 72.9062
L19.6719 43.0156
L55.5156 43.0156
L55.5156 72.9062
L65.375 72.9062
L65.375 0
L55.5156 0
L55.5156 34.7188
L19.6719 34.7188
L19.6719 0
L9.8125 0
z
" id="BitstreamVeraSans-Roman-48"/>
    </defs>
    <g transform="translate(154.362375 38.2)scale(0.144 -0.144)">
     <use xlink:href="#BitstreamVeraSans-Roman-50"/>
     <use x="56.677734375" xlink:href="#BitstreamVeraSans-Roman-65"/>
     <use x="118.201171875" xlink:href="#BitstreamVeraSans-Roman-61"/>
     <use x="179.48046875" xlink:href="#BitstreamVeraSans-Roman-6b"/>
     <use x="237.390625" xlink:href="#BitstreamVeraSans-Roman-20"/>
     <use x="269.177734375" xlink:href="#BitstreamVeraSans-Roman-61"/>
     <use x="330.45703125" xlink:href="#BitstreamVeraSans-Roman-6e"/>
     <use x="393.8359375" xlink:href="#BitstreamVeraSans-Roman-64"/>
     <use x="457.3125" xlink:href="#BitstreamVeraSans-Roman-20"/>
     <use x="489.099609375" xlink:href="#BitstreamVeraSans-Roman-48"/>
     <use x="564.294921875" xlink:href="#BitstreamVeraSans-Roman-61"/>
     <use x="625.57421875" xlink:href="#BitstreamVeraSans-Roman-6c"/>
     <use x="653.357421875" xlink:href="#BitstreamVeraSans-Roman-66"/>
     <use x="688.5625" xlink:href="#BitstreamVeraSans-Roman-20"/>
     <use x="720.349609375" xlink:href="#BitstreamVeraSans-Roman-54"/>
     <use x="778.30859375" xlink:href="#BitstreamVeraSans-Roman-69"/>
     <use x="806.091796875" xlink:href="#BitstreamVeraSans-Roman-6d"/>
     <use x="903.50390625" xlink:href="#BitstreamVeraSans-Roman-65"/>
     <use x="965.02734375" xlink:href="#BitstreamVeraSans-Roman-20"/>
     <use x="996.814453125" xlink:href="#BitstreamVeraSans-Roman-52"/>
     <use x="1061.796875" xlink:href="#BitstreamVeraSans-Roman-65"/>
     <use x="1123.3203125" xlink:href="#BitstreamVeraSans-Roman-63"/>
     <use x="1178.30078125" xlink:href="#BitstreamVeraSans-Roman-6f"/>
     <use x="1239.48242188" xlink:href="#BitstreamVeraSans-Roman-76"/>
     <use x="1298.66210938" xlink:href="#BitstreamVeraSans-Roman-65"/>
     <use x="1360.18554688" xlink:href="#BitstreamVeraSans-Roman-72"/>
     <use x="1401.29882812" xlink:href="#BitstreamVeraSans-Roman-79"/>
     <use x="1460.47851562" xlink:href="#BitstreamVeraSans-Roman-20"/>
     <use x="1492.265625" xlink:href="#BitstreamVeraSans-Roman-64"/>
     <use x="1555.7421875" xlink:href="#BitstreamVeraSans-Roman-65"/>
     <use x="1617.265625" xlink:href="#BitstreamVeraSans-Roman-74"/>
     <use x="1656.47460938" xlink:href="#BitstreamVeraSans-Roman-65"/>
     <use x="1717.99804688" xlink:href="#BitstreamVeraSans-Roman-63"/>
     <use x="1772.97851562" xlink:href="#BitstreamVeraSans-Roman-74"/>
     <use x="1812.1875" xlink:href="#BitstreamVeraSans-Roman-69"/>
     <use x="1839.97070312" xlink:href="#BitstreamVeraSans-Roman-6f"/>
     <use x="1901.15234375" xlink:href="#BitstreamVeraSans-Roman-6e"/>
    </g>
   </g>
  </g>
 </g>
 <defs>
  <clipPath id="p7ff5b81e1d">
   <rect height="345.6" width="446.4" x="72.0" y="43.2"/>
  </clipPath>
 </defs>
</svg>
